<?xml version="1.0" encoding="utf-8"?>
<!-- Generator: Adobe Illustrator 24.0.1, SVG Export Plug-In . SVG Version: 6.00 Build 0)  -->
<svg version="1.1" id="Layer_1" xmlns="http://www.w3.org/2000/svg" xmlns:xlink="http://www.w3.org/1999/xlink" x="0px" y="0px"
	 viewBox="0 0 430.07 304.71" style="enable-background:new 0 0 430.07 304.71;" xml:space="preserve">
<style type="text/css">
	.st0{fill:#FFFFFF;}
	.st1{fill:none;stroke:#FFFFFF;stroke-width:6;}
</style>
<g id="Layer_2">
	<path class="st0" d="M306,153.85c-0.6-0.92-1.19-1.84-1.76-2.76c-2.89-4.61-5.55-9.27-8.36-13.59c-0.71-0.87-1.43-1.74-2.14-2.62
		c-2.84-3.52-5.54-7.03-8.24-9.73c-23-20-56-22-84.88-13.13c-1.26,0.42-2.46,0.86-3.64,1.33c-15.22,6.02-28.96,16.22-39.44,28.64
		c-0.61,0.77-1.22,1.55-1.84,2.34c-1.86,2.35-3.81,4.72-6.21,6.82c-2,1-4,1-5.57,1.9c-0.96,0.02-1.92-0.07-2.89-0.25
		c-6.78-1.24-13.54-6.86-19.13-11.36c-0.96-0.38-1.92-0.85-2.88-1.4c-3.91-2.22-7.88-5.66-11.87-8.84c-0.8-0.64-1.6-1.26-2.4-1.86
		c-6.26-5.19-16.26-10.19-22.26-2.19c-3,4-2,9-1.83,13.71c0.1,0.9,0.28,1.79,0.55,2.66c0.27,0.87,0.64,1.72,1.11,2.53
		c0.34,0.85,0.72,1.7,1.13,2.54c0.41,0.84,0.85,1.67,1.3,2.5c0.56,1,1.14,2,1.76,3.01c5.98,10.05,16.98,20.05,8.99,32.14
		c-0.37,0.92-0.81,1.87-1.31,2.84c-0.95,1.84-2.12,3.75-3.39,5.71c-0.63,0.98-1.29,1.97-1.94,2.96c-3.37,8.4-12.37,19.4-5.42,28.76
		c0.64,0.71,1.32,1.37,2,1.98c0.69,0.61,1.38,1.16,2.05,1.66c6,4,13,0,18.02-3.77c1.04-0.63,2.08-1.32,3.09-2.06
		c5.08-3.69,9.8-8.53,14.03-12.36c1.38-1.14,2.78-2.25,4.2-3.3c0.71-0.53,1.43-1.04,2.16-1.55c1.24-2.03,2.64-3.62,4.16-4.84
		c0.76-0.61,1.55-1.12,2.36-1.55c0.81-0.43,1.65-0.77,2.52-1.04c6.03-1.47,10.76,0.97,15.14,4.52c0.88,0.71,1.74,1.46,2.59,2.22
		c0.77,0.97,1.56,1.92,2.36,2.83c0.8,0.92,1.61,1.81,2.44,2.67c8.89,8.4,17.81,18.12,28.71,23.74c1.11,0.54,2.19,1.03,3.38,1.51
		c10.83,3.97,21.83,5.97,34.14,5.44c1.14,0.01,2.3,0.01,3.47,0c10.51-0.12,21.15-1.45,31.14-4.4c3.11-0.92,6.16-1.98,9.12-3.15
		c2.87-0.86,5.55-1.97,8.08-3.27c2.11-1.08,4.1-2.29,5.98-3.62c0.63-0.44,1.24-0.9,1.84-1.36c4.03-3.34,7.55-7.25,10.92-11.38
		c0.67-0.83,1.34-1.66,2-2.5c0.39-0.97,0.82-1.95,1.27-2.93c0.45-0.98,0.91-1.96,1.37-2.96c0.94-1.84,1.81-3.83,2.76-5.88
		c0.33-0.69,0.66-1.38,1.02-2.08c1.44-3.28,3.77-6.61,6.14-9.89c0.47-0.66,0.95-1.31,1.42-1.96c0.47-0.74,0.95-1.54,1.45-2.41
		c0.45-0.61,1.03-1.21,1.65-1.8c0.63-0.59,1.3-1.17,1.97-1.76C328.5,170.14,309.5,162.14,306,153.85z M233.3,189.03
		c-0.66,0.71-1.34,1.38-2.04,2.03c-2.82,2.56-6.11,4.61-9.69,6.3c-0.79,0.38-1.6,0.73-2.42,1.08c-2.31,1.46-4.84,2.48-7.46,3.08
		c-0.87,0.21-1.76,0.37-2.65,0.5c-8.68,1-19.68,0-23.42-10.31c-0.43-0.87-0.82-1.76-1.18-2.65s-0.68-1.79-0.95-2.7
		c-0.28-0.91-0.51-1.82-0.7-2.74c-0.49-1.92-0.76-3.94-0.78-5.95c-0.01-1.01,0.04-2.01,0.15-3c-0.08-1.17-0.04-2.28,0.1-3.35
		s0.39-2.08,0.74-3.03c1.36-13.27,17.36-12.27,24.96-8.26c0.91,0.29,1.82,0.6,2.74,0.91c6.39,2.22,12.75,5.14,17.63,9.96
		c0.58,0.46,1.15,0.91,1.73,1.37c2.88,2.3,5.7,4.68,8.03,7.92c0.28,0.5,0.46,0.99,0.49,1.47
		C237.35,185.01,235.35,187.01,233.3,189.03z M266.79,165c-5.44,0-9.86-4.41-9.86-9.86s4.41-9.86,9.86-9.86s9.86,4.41,9.86,9.86
		S272.23,165,266.79,165z"/>
	<circle class="st0" cx="366.75" cy="185.68" r="17.68"/>
	<circle class="st0" cx="316.16" cy="116.93" r="14.85"/>
	<path class="st0" d="M361.63,147.57c-0.13,1.57-1.13,3.57-2.23,5.65c-0.12,0.16-0.24,0.31-0.38,0.46
		c-2.52,0.46-4.52,3.46-7.28,2.52c-0.21-0.01-0.42-0.01-0.63-0.01c-0.25,0-0.5-0.01-0.73,0c-0.24,0-0.48-0.01-0.72-0.01
		s-0.48-0.01-0.71-0.02c-0.69,0-1.24-0.16-1.69-0.43c-0.23-0.13-0.43-0.29-0.62-0.47c-1.11-1.1-1.92-1.91-2.46-2.83
		c-0.09-0.15-0.17-0.31-0.25-0.47c-0.12-0.54-0.39-1.19-0.68-1.89c-0.1-0.23-0.19-0.47-0.27-0.71c-0.46-2.2-0.46-4.2-0.14-6.47
		c0.03-0.17,0.08-0.33,0.12-0.5c0.24-0.82,0.58-1.62,1.09-2.31c0.14-0.24,0.27-0.47,0.41-0.69c1.3-2,3.45-2.93,5.93-3.3
		c0.25-0.04,0.5-0.07,0.76-0.1c2.08,0.06,4.1,0.85,5.8,2.09c0.19,0.14,0.37,0.28,0.55,0.43c0.31,0.49,0.88,0.92,1.53,1.38
		c0.22,0.15,0.44,0.31,0.66,0.47c0.83,1.79,2.83,2.79,2.21,6.12c-0.03,0.07-0.05,0.14-0.08,0.3
		C361.76,146.93,361.72,147.17,361.63,147.57z"/>
	<circle class="st1" cx="335.21" cy="98.4" r="29.54"/>
	<path class="st0" d="M230.13,180.89c-2.39,4.6-7.39,6.6-11.74,9.52c-0.79,0.42-1.59,0.84-2.4,1.24c-2.43,1.2-4.96,2.29-7.4,3.34
		c-1.04,0.17-2.08,0.27-3.11,0.3c-7.19,0.2-13.86-3.09-16.46-10.78c-0.35-0.95-0.64-1.97-0.85-3.05c-0.07-0.68-0.08-1.37-0.04-2.07
		c-1.38-5.88,0.62-11.88,5.62-13.88c4-2,9-1,13.29,1.01c0.96,0.29,1.91,0.63,2.86,0.99c0.94,0.37,1.88,0.77,2.79,1.21
		c0.81,0.35,1.6,0.74,2.39,1.17c0.79,0.43,1.58,0.89,2.36,1.38c0.78,0.49,1.56,1.01,2.36,1.55c2.95,2.69,6.95,3.69,9.74,6.44
		C229.88,179.77,230.08,180.33,230.13,180.89z"/>
</g>
</svg>
