<svg width="240" height="240" viewBox="0 0 240 240" fill="none" xmlns="http://www.w3.org/2000/svg">
<path d="M152.238 119.033C151.977 118.633 151.72 118.232 151.472 117.831C150.214 115.822 149.056 113.792 147.832 111.909C147.523 111.53 147.209 111.151 146.9 110.768C145.664 109.234 144.488 107.704 143.313 106.528C133.299 97.813 118.931 96.9415 106.357 100.807C105.809 100.99 105.286 101.181 104.773 101.386C98.1461 104.009 92.1639 108.454 87.6011 113.866C87.3355 114.201 87.0699 114.541 86.8 114.885C85.9902 115.909 85.1412 116.942 84.0962 117.857C83.2255 118.293 82.3547 118.293 81.6711 118.685C81.2532 118.694 80.8352 118.654 80.4129 118.576C77.461 118.036 74.5178 115.587 72.084 113.626C71.666 113.46 71.2481 113.256 70.8301 113.016C69.1277 112.049 67.3993 110.55 65.6621 109.164C65.3138 108.885 64.9655 108.615 64.6172 108.354C61.8917 106.092 57.5378 103.913 54.9255 107.399C53.6194 109.142 54.0547 111.321 54.1288 113.373C54.1723 113.765 54.2507 114.153 54.3682 114.532C54.4858 114.911 54.6469 115.282 54.8515 115.635C54.9995 116.005 55.165 116.375 55.3435 116.741C55.522 117.108 55.7136 117.469 55.9095 117.831C56.1533 118.267 56.4058 118.702 56.6758 119.142C59.2793 123.522 64.0686 127.879 60.5899 133.147C60.4288 133.548 60.2372 133.962 60.0195 134.385C59.6059 135.186 59.0965 136.019 58.5436 136.873C58.2693 137.3 57.9819 137.731 57.6989 138.162C56.2317 141.823 52.3132 146.616 55.3391 150.694C55.6178 151.004 55.9138 151.291 56.2099 151.557C56.5103 151.823 56.8107 152.063 57.1024 152.28C59.7147 154.023 62.7624 152.28 64.948 150.638C65.4008 150.363 65.8536 150.062 66.2934 149.74C68.5051 148.132 70.5601 146.023 72.4018 144.354C73.0026 143.858 73.6122 143.374 74.2304 142.916C74.5396 142.685 74.853 142.463 75.1709 142.241C75.7107 141.356 76.3203 140.664 76.9821 140.132C77.3129 139.866 77.6569 139.644 78.0096 139.457C78.3622 139.269 78.7279 139.121 79.1067 139.003C81.7321 138.363 83.7915 139.426 85.6984 140.973C86.0816 141.282 86.456 141.609 86.8261 141.94C87.1613 142.363 87.5053 142.777 87.8536 143.173C88.2019 143.574 88.5546 143.962 88.9159 144.337C92.7865 147.997 96.6701 152.232 101.416 154.681C101.899 154.917 102.369 155.13 102.887 155.339C107.603 157.069 112.392 157.941 117.751 157.71C118.248 157.714 118.753 157.714 119.262 157.71C123.838 157.657 128.471 157.078 132.82 155.792C134.174 155.392 135.502 154.93 136.791 154.42C138.04 154.045 139.207 153.561 140.309 152.995C141.227 152.524 142.094 151.997 142.912 151.418C143.187 151.226 143.452 151.025 143.713 150.825C145.468 149.37 147 147.666 148.468 145.866C148.759 145.505 149.051 145.143 149.339 144.777C149.508 144.354 149.696 143.927 149.891 143.5C150.087 143.073 150.288 142.646 150.488 142.21C150.897 141.409 151.276 140.542 151.69 139.648C151.833 139.348 151.977 139.047 152.134 138.742C152.761 137.313 153.775 135.862 154.807 134.433C155.012 134.145 155.221 133.862 155.425 133.578C155.63 133.256 155.839 132.907 156.056 132.528C156.252 132.263 156.505 132.001 156.775 131.744C157.049 131.487 157.341 131.234 157.633 130.977C162.034 126.132 153.762 122.646 152.238 119.033ZM120.586 134.363C120.298 134.672 120.002 134.964 119.698 135.247C118.47 136.363 117.037 137.256 115.479 137.993C115.135 138.158 114.782 138.311 114.425 138.463C113.419 139.099 112.318 139.544 111.177 139.805C110.798 139.897 110.411 139.966 110.023 140.023C106.244 140.459 101.455 140.023 99.8267 135.531C99.6394 135.151 99.4696 134.764 99.3129 134.376C99.1562 133.988 99.0168 133.596 98.8993 133.199C98.7774 132.803 98.6772 132.406 98.5945 132.005C98.3812 131.169 98.2636 130.289 98.2549 129.413C98.2506 128.973 98.2723 128.537 98.3202 128.106C98.2854 127.596 98.3028 127.112 98.3638 126.646C98.4247 126.18 98.5336 125.74 98.6859 125.326C99.2781 119.543 106.244 119.979 109.553 121.726C109.949 121.853 110.346 121.988 110.746 122.123C113.528 123.09 116.297 124.363 118.422 126.463C118.674 126.663 118.923 126.859 119.175 127.06C120.429 128.062 121.657 129.099 122.671 130.511C122.793 130.729 122.872 130.942 122.885 131.151C122.349 132.611 121.478 133.483 120.586 134.363ZM135.167 123.892C132.798 123.892 130.874 121.97 130.874 119.596C130.874 117.221 132.794 115.299 135.167 115.299C137.54 115.299 139.46 117.221 139.46 119.596C139.46 121.97 137.535 123.892 135.167 123.892Z" fill="white"/>
<path d="M178.688 140.607C182.939 140.607 186.385 137.158 186.385 132.903C186.385 128.648 182.939 125.199 178.688 125.199C174.436 125.199 170.99 128.648 170.99 132.903C170.99 137.158 174.436 140.607 178.688 140.607Z" fill="white"/>
<path d="M156.662 109.417C160.232 109.417 163.127 106.52 163.127 102.946C163.127 99.3723 160.232 96.4753 156.662 96.4753C153.091 96.4753 150.196 99.3723 150.196 102.946C150.196 106.52 153.091 109.417 156.662 109.417Z" fill="white"/>
<path d="M176.459 116.297C176.402 116.981 175.967 117.853 175.488 118.759C175.435 118.829 175.383 118.894 175.322 118.959C174.225 119.16 173.354 120.467 172.153 120.057C172.061 120.053 171.97 120.053 171.878 120.053C171.769 120.053 171.661 120.049 171.561 120.053C171.456 120.053 171.352 120.049 171.247 120.049C171.143 120.049 171.038 120.044 170.938 120.04C170.637 120.04 170.398 119.97 170.202 119.853C170.102 119.796 170.015 119.726 169.932 119.648C169.449 119.169 169.096 118.816 168.861 118.415C168.822 118.349 168.787 118.28 168.752 118.21C168.7 117.975 168.582 117.691 168.456 117.386C168.413 117.286 168.374 117.182 168.339 117.077C168.138 116.118 168.138 115.247 168.278 114.258C168.291 114.184 168.313 114.114 168.33 114.04C168.434 113.683 168.582 113.334 168.805 113.033C168.865 112.929 168.922 112.829 168.983 112.733C169.549 111.861 170.485 111.456 171.565 111.295C171.674 111.277 171.783 111.264 171.896 111.251C172.801 111.277 173.681 111.622 174.421 112.162C174.504 112.223 174.582 112.284 174.66 112.349C174.795 112.563 175.044 112.75 175.327 112.951C175.422 113.016 175.518 113.086 175.614 113.155C175.975 113.935 176.846 114.371 176.576 115.822C176.563 115.853 176.554 115.883 176.541 115.953C176.515 116.018 176.498 116.123 176.459 116.297Z" fill="white"/>
<path d="M164.956 107.743C172.059 107.743 177.817 101.981 177.817 94.8717C177.817 87.7629 172.059 82 164.956 82C157.853 82 152.094 87.7629 152.094 94.8717C152.094 101.981 157.853 107.743 164.956 107.743Z" stroke="white" stroke-width="6"/>
<path d="M119.206 130.816C118.165 132.82 115.988 133.692 114.094 134.964C113.75 135.147 113.402 135.33 113.049 135.504C111.991 136.027 110.89 136.502 109.827 136.96C109.375 137.034 108.922 137.077 108.473 137.091C105.343 137.178 102.439 135.744 101.307 132.393C101.155 131.979 101.028 131.535 100.937 131.064C100.906 130.768 100.902 130.467 100.919 130.162C100.319 127.6 101.189 124.986 103.366 124.114C105.108 123.243 107.285 123.678 109.153 124.554C109.571 124.681 109.984 124.829 110.398 124.986C110.807 125.147 111.216 125.321 111.612 125.513C111.965 125.665 112.309 125.835 112.653 126.023C112.997 126.21 113.341 126.411 113.681 126.624C114.02 126.838 114.36 127.064 114.708 127.299C115.992 128.472 117.734 128.907 118.949 130.106C119.097 130.328 119.184 130.572 119.206 130.816Z" fill="white"/>
</svg>
